<svg xmlns="http://www.w3.org/2000/svg" xml:space="preserve" width="2000" height="156" data-id="lg_pKJZ7s806CxblZdrcQ" data-version="1" viewBox="0 0 2000 156"><g data-padding="20"><g transform="translate(10 2.088)scale(.97323)"><rect width="560" height="76.84" x="327.763" y="-345.449" fill="none" rx="0" ry="0" transform="translate(502.83 375.79)"/><path fill="#131313" d="M860.543 90.121v-46.78h40.46v11.22h-25.43v6.46h21.76v10.74h-21.76v7.14h25.9v11.22Zm65.89-36.72q8.23 0 13.4 2.76 5.16 2.75 5.16 8.94v14.01q0 1.15.55 1.9.54.75 1.63.75h2.45v7.82q-.21.13-1.06.44t-2.41.61q-1.56.31-3.6.31-3.95 0-6.5-1.19t-3.5-3.3q-2.58 2.04-5.78 3.26-3.2 1.23-7.48 1.23-12.65 0-12.65-10.07 0-5.23 2.82-7.99 2.83-2.75 8.13-3.77t13.87-1.02v-1.77q0-2.11-1.46-3.19-1.46-1.09-3.77-1.09-2.11 0-3.64.75-1.53.74-1.53 2.38v.27h-13.33q-.07-.34-.07-.95 0-5.1 4.86-8.1 4.87-2.99 13.91-2.99m5.03 21.08q-5.78 0-8.53 1.26-2.76 1.26-2.76 3.37 0 3.4 4.63 3.4 2.65 0 4.66-1.43 2-1.43 2-3.54Zm39.65-21.08q7.2 0 12.2 2.82 5 2.83 5 8.74h-12.58q0-1.97-1.77-2.79-1.22-.68-3.06-.68-4.89 0-4.89 2.32 0 1.29 1.7 1.83 1.7.55 5.57 1.16 4.76.68 7.96 1.6 3.19.91 5.57 3.26t2.38 6.56q0 6.87-5.13 9.79-5.13 2.93-13.43 2.93-4.76 0-8.98-1.33-4.21-1.32-6.86-4.11-2.66-2.79-2.66-7.07h12.58v.27q.07 2.31 1.94 3.23t3.98.92q5.64 0 5.64-2.66 0-1.36-1.76-1.97-1.77-.61-5.78-1.29-4.83-.82-7.93-1.77-3.09-.95-5.4-3.23t-2.31-6.36q0-6.59 4.99-9.38 5-2.79 13.03-2.79m49.16 35.63q-2.79 7.55-6.83 11.46-4.05 3.91-11.33 3.91-4.42 0-7.82-1.22v-8.09h5.44q5.1 0 6.06-4.97l-14.28-35.9h14.55l6.87 23.87h.47l6.33-23.87h13.32Zm62.76-46.5q10.41 0 16.46 5.2 6.05 5.21 6.05 14.86h-14.35q0-4.08-2.14-6.46t-6.08-2.38q-4.56 0-6.7 2.86-2.14 2.85-2.14 7.95v4.36q0 5.03 2.14 7.92t6.56 2.89q4.35 0 6.6-2.25 2.24-2.24 2.24-6.32h13.87q0 9.59-5.88 14.69t-16.63 5.1q-11.96 0-18.12-6.12-6.15-6.12-6.15-18.09t6.15-18.09q6.16-6.12 18.12-6.12m48.22 10.87q9.45 0 14.85 4.8 5.41 4.79 5.41 13.97t-5.41 13.97q-5.4 4.8-14.85 4.8-9.46 0-14.83-4.76t-5.37-14.01 5.37-14.01 14.83-4.76m0 9.18q-6.67 0-6.67 7.69v3.87q0 7.62 6.67 7.62 6.73 0 6.73-7.62v-3.87q0-7.69-6.73-7.69m51.54-9.18q6.26 0 9.38 3.47 3.13 3.47 3.13 10v23.25h-13.53v-21.62q0-2.31-1.19-3.71-1.19-1.39-3.37-1.39-2.51 0-4.08 1.63-1.56 1.63-1.56 4.01v21.08h-13.53v-35.9h11.08l.89 5.44q2.1-2.86 5.54-4.56 3.43-1.7 7.24-1.7m45.37 0q6.25 0 9.38 3.47t3.13 10v23.25h-13.53v-21.62q0-2.31-1.19-3.71-1.19-1.39-3.37-1.39-2.52 0-4.08 1.63t-1.56 4.01v21.08h-13.54v-35.9h11.09l.88 5.44q2.11-2.86 5.54-4.56 3.44-1.7 7.25-1.7m39.16 0q9.86 0 15.07 4.63 5.2 4.62 5.2 14.14v2.31h-26.93q0 3.88 1.73 5.85 1.74 1.97 5.48 1.97 3.4 0 5-1.43 1.59-1.42 1.59-3.8h13.13q0 6.52-4.97 10.2-4.96 3.67-14.48 3.67-10 0-15.5-4.66-5.51-4.66-5.51-14.11 0-9.25 5.37-14.01t14.82-4.76m.55 8.64q-6.39 0-7.14 6.05h13.19q0-2.79-1.6-4.42t-4.45-1.63m44.8-8.64q8.84 0 14.31 3.78 5.48 3.77 5.48 11.52h-13.13q0-6.12-6.66-6.12t-6.66 7.69v3.87q0 7.62 6.93 7.62 6.94 0 6.94-6.26h12.58q0 7.82-5.48 11.63-5.47 3.81-14.31 3.81-9.45 0-14.82-4.76-5.38-4.76-5.38-14.01t5.38-14.01q5.37-4.76 14.82-4.76m43.11.82h7.62v9.18h-7.62v13.67q0 2.44.82 3.57.81 1.12 2.99 1.12h3.81v7.95q-1.63.55-4.22.89-2.58.34-4.49.34-5.98 0-9.21-2.18-3.23-2.17-3.23-7.41v-17.95h-5.03v-9.18h5.57l2.93-10.88h10.06Z"/><rect width="530.813" height="39.55" x="342.357" y="-326.804" fill="none" rx="0" ry="0" transform="translate(502.33 442.85)"/><path fill="#f43f7f" d="m844.453 150.461-1.54 2.31q.28.35.89.75t1.47.7 1.77.3q1.22 0 2.22-.33 1-.34 1.7-1.04t1.06-1.75q.37-1.05.37-2.48v-26.6h-2.8v26.25q0 1.71-.79 2.43-.78.72-1.59.72-.94 0-1.66-.33-.72-.34-1.1-.93m34.94-15.89q0-2.77 1.2-4.94 1.21-2.17 3.31-3.43t4.76-1.26q2.7 0 4.78 1.26t3.29 3.43 1.21 4.94q0 2.76-1.21 4.93t-3.29 3.43-4.78 1.26q-2.66 0-4.76-1.26t-3.31-3.43q-1.2-2.17-1.2-4.93m-3.15 0q0 2.66.92 4.97.93 2.31 2.61 4.01 1.68 1.69 3.96 2.66 2.27.96 4.93.96 2.7 0 4.95-.96 2.26-.97 3.94-2.66 1.68-1.7 2.61-4.01t.93-4.97q0-2.7-.93-4.99t-2.61-3.99-3.94-2.66q-2.25-.96-4.95-.96-2.66 0-4.93.96-2.28.96-3.96 2.66t-2.61 3.99q-.92 2.29-.92 4.99m51.02-2.35v1.65h3.95q2.21 0 3.83-.63 1.63-.63 2.54-1.86.91-1.22.91-2.94 0-2.1-.91-3.44-.91-1.35-2.54-2.02-1.62-.66-3.83-.66h-6.3v24.5h6.65q2.38 0 4.25-.79 1.88-.79 2.98-2.38t1.1-4.01q0-1.68-.63-2.9-.63-1.23-1.77-2.01-1.13-.79-2.64-1.18-1.5-.38-3.29-.38h-4.3v1.64h4.3q1.19 0 2.17.3t1.7.89q.72.6 1.1 1.47.39.88.39 2 0 1.5-.69 2.55-.68 1.05-1.89 1.61-1.2.56-2.78.56h-3.67v-19.25h3.32q1.86 0 3.08.97 1.23.96 1.23 2.71 0 1.15-.56 1.96-.56.8-1.54 1.22t-2.21.42Zm37.73 7.18-2.38 1.61q.8 1.61 2.08 3.03 1.28 1.41 2.97 2.27 1.7.86 3.7.86 1.47 0 2.81-.49 1.35-.49 2.42-1.4t1.68-2.21q.61-1.29.61-2.9 0-1.68-.59-2.89-.6-1.21-1.53-2.06-.92-.86-2.01-1.42-1.08-.56-2.06-.91-2.14-.74-3.38-1.49t-1.77-1.61q-.52-.86-.52-1.87 0-1.19.91-2.15.91-.97 2.9-.97 1.44 0 2.43.56 1 .56 1.7 1.44.7.87 1.16 1.78l2.55-1.47q-.59-1.29-1.64-2.46-1.05-1.18-2.54-1.93t-3.48-.75q-2.07 0-3.68.82t-2.52 2.26q-.91 1.43-.91 3.25 0 1.68.65 2.84.65 1.15 1.66 1.94 1.02.79 2.14 1.3 1.12.5 2.03.82 1.4.49 2.64 1.1t2.01 1.59.77 2.63q0 1.68-1.19 2.76-1.19 1.09-3.15 1.09-1.47 0-2.62-.63-1.16-.63-2.09-1.75-.92-1.12-1.76-2.59m69.62 7.41 1.82-16.56 7.98 14.28 7.98-14.28 1.82 16.56h2.98l-2.98-25.73-9.8 17.75-9.8-17.75-2.97 25.73Zm49.81-10.15-1.05 2.8h12.95l-1.05-2.8Zm1.22.91 4.13-9.73 4.2 9.87.28.7 3.57 8.4h3.33l-11.38-25.73-11.37 25.73h3.32l3.64-8.61Zm41.08-15.25h-2.97v24.5h2.97Zm-1.33 24.5h5.71q3.57 0 6.33-1.54 2.77-1.54 4.34-4.29 1.58-2.75 1.58-6.42 0-3.68-1.58-6.42-1.57-2.75-4.34-4.29-2.76-1.54-6.33-1.54h-5.71v2.97h5.71q2.06 0 3.78.65 1.71.65 2.94 1.86 1.22 1.2 1.89 2.92.66 1.71.66 3.85 0 2.13-.66 3.85-.67 1.71-1.89 2.92-1.23 1.21-2.94 1.86-1.72.64-3.78.64h-5.71Zm43.44-2.8v2.8h12.35v-2.8Zm0-21.7v2.8h12.35v-2.8Zm0 9.8v2.8h11.65v-2.8Zm1.33-9.8h-2.98v24.5h2.98Zm67.69 21.7v2.8h12.35v-2.8Zm0-21.7v2.8h12.35v-2.8Zm0 9.8v2.8h11.65v-2.8Zm1.33-9.8h-2.98v24.5h2.98Zm39.3 14.34-1.05 2.8h12.95l-1.05-2.8Zm1.23.91 4.13-9.73 4.2 9.87.28.7 3.57 8.4h3.32l-11.37-25.73-11.38 25.73h3.33l3.64-8.61Zm39.02 1.83-2.38 1.61q.81 1.61 2.08 3.03 1.28 1.41 2.98 2.27t3.69.86q1.47 0 2.82-.49t2.41-1.4q1.07-.91 1.68-2.21.62-1.29.62-2.9 0-1.68-.6-2.89-.59-1.21-1.52-2.06-.93-.86-2.01-1.42-1.09-.56-2.07-.91-2.13-.74-3.38-1.49-1.24-.75-1.76-1.61-.53-.86-.53-1.87 0-1.19.91-2.15.91-.97 2.91-.97 1.43 0 2.43.56t1.7 1.44q.7.87 1.15 1.78l2.56-1.47q-.6-1.29-1.65-2.46-1.05-1.18-2.54-1.93-1.48-.75-3.48-.75-2.06 0-3.67.82t-2.52 2.26q-.91 1.43-.91 3.25 0 1.68.64 2.84.65 1.15 1.67 1.94 1.01.79 2.13 1.3 1.12.5 2.03.82 1.4.49 2.64 1.1 1.25.61 2.02 1.59t.77 2.63q0 1.68-1.19 2.76-1.19 1.09-3.15 1.09-1.47 0-2.63-.63-1.15-.63-2.08-1.75t-1.77-2.59m54.58-17.08h-3.33l-6.33 11.34-6.3-11.34h-3.33l8.16 13.96v10.54h2.97v-10.57ZM819.175 34.947a9.45 9.45 0 0 0-9.413-9.412h-49.007V12.871A13.04 13.04 0 0 0 747.77-.095h-32.394a13.04 13.04 0 0 0-12.985 12.984v12.663h-49.007a9.45 9.45 0 0 0-9.413 9.375l-.094 44.736a3.78 3.78 0 0 0 2.136 3.402q3.005 1.455 6.104 2.76v60.858a9.45 9.45 0 0 0 9.413 9.412h140.086a9.45 9.45 0 0 0 9.394-9.394V84.898a132 132 0 0 0 6.237-3.042 3.78 3.78 0 0 0 2.022-3.346ZM709.933 12.89a5.48 5.48 0 0 1 5.443-5.424h32.394a5.48 5.48 0 0 1 5.443 5.424v12.663h-43.28Zm93.536 133.812a1.89 1.89 0 0 1-1.853 1.834H661.53a1.89 1.89 0 0 1-1.853-1.834V88.831c16.462 6.048 34.852 9.658 54.886 10.773v5.254a6.9 6.9 0 0 0 6.898 6.88h20.224a6.9 6.9 0 0 0 6.88-6.88v-5.311c20.317-1.229 38.706-5.065 54.885-11.416Zm-81.346-42.525v-12.53h18.9v12.53Zm26.46-12.228v-.964a6.9 6.9 0 0 0-6.898-6.898h-20.224a6.9 6.9 0 0 0-6.898 6.898v1.04c-23.663-1.361-44.906-6.294-63.126-14.742l.095-42.336a1.89 1.89 0 0 1 1.852-1.852h156.378a1.89 1.89 0 0 1 1.852 1.852l.095 41.258c-17.785 8.96-39.028 14.232-63.126 15.744"/></g><path fill="transparent" stroke="transparent" d="M626.5 0h747v156h-747z"/></g></svg>